HIERARCHY
ROOT root
{
	OFFSET 0.000000 0.000000 0.000000
	CHANNELS 6 Xposition Yposition Zposition Zrotation Yrotation Xrotation
	JOINT lhip
	{
		OFFSET 0.058581 -0.082280 -0.017664
		CHANNELS 3 Zrotation Yrotation Xrotation
		JOINT lknee
		{
			OFFSET 0.043451 -0.386469 0.008037
			CHANNELS 3 Zrotation Yrotation Xrotation
			JOINT lankle
			{
				OFFSET -0.014790 -0.426874 -0.037428
				CHANNELS 3 Zrotation Yrotation Xrotation
				JOINT ltoe
				{
					OFFSET 0.041054 -0.060286 0.122042
					CHANNELS 3 Zrotation Yrotation Xrotation
					End Site
					{
						OFFSET 0.000000 0.000000 0.000000
					}
				}
			}
		}
	}
	JOINT rhip
	{
		OFFSET -0.060310 -0.090513 -0.013543
		CHANNELS 3 Zrotation Yrotation Xrotation
		JOINT rknee
		{
			OFFSET -0.043257 -0.383688 -0.004843
			CHANNELS 3 Zrotation Yrotation Xrotation
			JOINT rankle
			{
				OFFSET 0.019056 -0.420046 -0.034562
				CHANNELS 3 Zrotation Yrotation Xrotation
				JOINT rtoe
				{
					OFFSET -0.034840 -0.062106 0.130323
					CHANNELS 3 Zrotation Yrotation Xrotation
					End Site
					{
						OFFSET 0.000000 0.000000 0.000000
					}
				}
			}
		}
	}
	JOINT lowerback
	{
		OFFSET 0.004439 0.124404 -0.038385
		CHANNELS 3 Zrotation Yrotation Xrotation
		JOINT upperback
		{
			OFFSET 0.004488 0.137956 0.026820
			CHANNELS 3 Zrotation Yrotation Xrotation
			JOINT chest
			{
				OFFSET -0.002265 0.056032 0.002855
				CHANNELS 3 Zrotation Yrotation Xrotation
				JOINT lowerneck
				{
					OFFSET -0.013390 0.211636 -0.033468
					CHANNELS 3 Zrotation Yrotation Xrotation
					JOINT upperneck
					{
						OFFSET 0.010113 0.088937 0.050410
						CHANNELS 3 Zrotation Yrotation Xrotation
						End Site
						{
							OFFSET 0.000000 0.000000 0.000000
						}
					}
				}
				JOINT lclavicle
				{
					OFFSET 0.071702 0.114000 -0.018898
					CHANNELS 3 Zrotation Yrotation Xrotation
					JOINT lshoulder
					{
						OFFSET 0.122921 0.045205 -0.019046
						CHANNELS 3 Zrotation Yrotation Xrotation
						JOINT lelbow
						{
							OFFSET 0.255332 -0.015649 -0.022946
							CHANNELS 3 Zrotation Yrotation Xrotation
							JOINT lwrist
							{
								OFFSET 0.265709 0.012698 -0.007375
								CHANNELS 3 Zrotation Yrotation Xrotation
								End Site
								{
									OFFSET 0.000000 0.000000 0.000000
								}
							}
						}
					}
				}
				JOINT rclavicle
				{
					OFFSET -0.082954 0.112472 -0.023707
					CHANNELS 3 Zrotation Yrotation Xrotation
					JOINT rshoulder
					{
						OFFSET -0.113228 0.046853 -0.008472
						CHANNELS 3 Zrotation Yrotation Xrotation
						JOINT relbow
						{
							OFFSET -0.260127 -0.014369 -0.031269
							CHANNELS 3 Zrotation Yrotation Xrotation
							JOINT rwrist
							{
								OFFSET -0.269108 0.006794 -0.006027
								CHANNELS 3 Zrotation Yrotation Xrotation
								End Site
								{
									OFFSET 0.000000 0.000000 0.000000
								}
							}
						}
					}
				}
			}
		}
	}
}
MOTION
Frames: 8
Frame Time: 0.033333
0.958255 0.216354 0.959683 -72.255129 10.334291 75.737484 13.324985 -2.475512 22.101353 -6.828447 -32.801476 21.840471 2.029499 10.823728 -35.759244 0.000000 -0.000000 0.000000 -10.788806 -4.876254 -14.726430 3.170481 -6.109546 11.058858 9.674876 -11.879643 -2.118846 0.000000 -0.000000 0.000000 -7.752587 -1.661244 7.585715 4.548512 -5.042955 7.839371 1.640992 -6.083417 7.364513 8.995758 -11.749265 16.731686 2.936839 -19.194589 13.003097 -20.912962 11.924429 7.370999 -47.402985 -9.504071 5.472307 3.179140 -32.498127 6.539162 0.223864 -1.869227 -12.702278 24.717665 -12.608530 -1.793363 60.656245 -7.316300 8.880611 -12.423370 24.161035 -2.815453 5.964497 -1.849836 -4.432058 
0.938035 0.224660 0.954630 -71.346421 10.279265 75.709390 14.974866 -2.351509 22.966256 -7.282478 -33.487356 22.204124 1.552922 10.452134 -36.355316 0.000000 -0.000000 0.000000 -11.356260 -5.632879 -14.489492 3.385506 -5.915143 11.115316 10.381235 -11.565865 -0.635877 0.000000 -0.000000 0.000000 -8.441113 -1.770746 6.941824 4.505556 -5.221968 8.334046 1.592116 -6.192815 7.510565 9.160927 -12.677484 17.213267 3.044844 -19.939724 12.935838 -20.965517 12.267249 6.992833 -45.732586 -9.732649 5.262341 2.088836 -33.436734 7.280863 1.089735 -1.624454 -11.606980 24.811585 -13.390078 -2.187513 60.410789 -8.241018 8.955094 -11.585247 24.729827 -2.393393 6.193618 -2.306180 -4.442494 
0.918061 0.233423 0.949710 -70.596610 10.194144 75.710905 16.198964 -2.841757 23.819634 -7.682632 -33.857696 22.808602 0.924064 10.383118 -36.838285 0.000000 -0.000000 0.000000 -11.733754 -5.985686 -14.045382 3.656191 -5.842405 10.888259 11.209443 -11.346609 0.903822 0.000000 -0.000000 0.000000 -8.792239 -1.697651 6.755522 4.391467 -5.211195 8.672243 1.540152 -6.229222 7.431555 9.021763 -12.846528 17.978724 3.602782 -20.125445 12.772637 -20.618237 12.097392 7.299902 -44.892505 -9.856335 5.123059 1.959330 -34.865409 7.307852 1.212437 -1.406312 -12.157191 24.576144 -13.592224 -1.951537 60.427043 -8.975453 8.727599 -10.951626 25.071433 -1.887261 5.918564 -2.598387 -4.681626 
0.897696 0.242738 0.944253 -69.579086 9.888035 76.071570 17.366087 -3.097205 24.216512 -7.983249 -34.468563 23.392921 0.070947 9.865928 -37.046508 0.000000 -0.000000 0.000000 -12.278914 -6.146556 -13.890570 3.870302 -6.371135 10.977695 11.867079 -11.389286 1.097337 0.000000 -0.000000 0.000000 -9.057826 -1.788299 6.684248 4.194047 -5.257857 8.951785 1.527826 -6.335927 7.253361 8.936037 -12.784252 18.145457 3.863440 -19.974399 12.848287 -20.392087 12.119770 7.503969 -44.279083 -10.217757 4.836273 1.736050 -35.666816 7.203226 1.429784 -1.802262 -12.172144 24.219169 -13.728373 -1.611615 60.151866 -9.410243 8.558533 -9.951575 25.294486 -1.010573 6.169823 -1.965466 -4.553468 
0.876803 0.253211 0.938742 -68.779494 9.202645 76.671236 18.350645 -3.370519 24.498262 -8.478936 -35.070165 23.716663 -0.707073 9.220005 -36.950889 0.000000 -0.000000 0.000000 -12.771307 -6.566709 -14.420351 4.081642 -6.172979 12.050790 12.692256 -10.905924 1.794337 0.000000 -0.000000 0.000000 -9.455085 -1.655969 6.630855 4.136731 -5.266234 9.337475 1.530340 -6.419978 7.332987 9.204607 -12.973450 18.023099 4.189502 -20.410581 12.581744 -20.377049 11.974432 7.280875 -43.790643 -10.403518 5.031998 1.608024 -36.706491 6.883632 2.635017 -1.843165 -12.552196 24.017842 -13.814424 -1.696860 59.720090 -9.875171 8.824965 -9.203343 26.019481 -0.398965 5.776201 -2.568052 -4.846291 
0.856672 0.264748 0.932295 -68.680253 8.230165 77.904813 18.766966 -3.502564 24.248286 -8.565187 -34.960590 23.794052 -1.090762 8.720318 -36.492684 0.000000 -0.000000 0.000000 -12.746032 -7.385480 -16.417235 4.459317 -5.719968 14.293935 13.856060 -9.583428 2.685436 0.000000 -0.000000 0.000000 -9.538975 -1.838909 6.324149 3.927742 -5.123680 9.727884 1.386002 -6.335932 7.404925 9.001591 -12.422561 17.978102 4.256690 -19.788526 12.139312 -20.361069 11.996848 6.874602 -43.843415 -10.405006 5.363755 1.781813 -37.562691 6.280604 3.231457 -2.129658 -12.761064 23.712574 -13.780143 -1.624970 59.263677 -9.546436 8.883918 -8.706693 26.335682 0.082758 6.052124 -2.096099 -4.189489 
0.835781 0.278415 0.925526 -68.939620 7.038167 79.365004 18.899833 -3.646886 23.908891 -8.756932 -34.836397 24.053910 -1.469713 8.644778 -35.656954 0.000000 -0.000000 0.000000 -12.446865 -7.344068 -18.700488 5.047651 -4.813858 16.767359 13.560261 -7.880400 6.196775 0.000000 -0.000000 0.000000 -9.434263 -1.871062 6.461832 3.799419 -4.841029 9.689083 1.186438 -6.205697 7.178906 8.679569 -12.435518 17.827197 4.522110 -19.786516 11.702889 -20.561767 11.741112 6.643873 -43.962908 -10.264244 5.545671 1.720947 -37.869884 6.000229 2.909695 -1.816781 -12.646578 23.471814 -13.718766 -1.358790 59.094861 -9.490657 8.526333 -9.200019 26.458099 -0.523864 5.858649 -2.164306 -4.180421 
0.816585 0.293781 0.920846 -70.064214 5.891994 80.491141 19.152812 -3.483776 23.989415 -9.156726 -34.726076 24.388636 -2.024223 8.437481 -34.028711 0.000000 -0.000000 0.000000 -12.176625 -7.230842 -22.996783 5.184170 -4.403893 21.642748 12.602123 -7.897261 9.200196 0.000000 -0.000000 0.000000 -8.752781 -2.142329 7.662768 3.569712 -3.826533 9.493701 0.604775 -5.863724 7.309096 9.086096 -11.755750 16.413837 4.566265 -19.700841 12.133750 -21.345132 11.496586 5.292260 -43.824905 -10.871826 5.764400 1.270848 -36.678353 5.748113 3.352186 -2.171670 -11.778107 24.025547 -13.877871 -2.350227 58.432428 -9.064403 8.790470 -9.505485 26.092325 -2.122964 5.657168 -2.074572 -4.221527 
